<svg xmlns="http://www.w3.org/2000/svg" viewBox="0 0 526.81 459.89"><defs><style>.cls-1{fill:#03dc12;}.cls-2,.cls-5,.cls-6{fill:#fff;}.cls-3{fill:#02aaf3;}.cls-4{fill:#fce002;stroke:#e6d300;stroke-miterlimit:10;}.cls-5{font-size:27.36px;}.cls-5,.cls-6{font-family:Impact;}.cls-6{font-size:23.43px;}</style></defs><g id="Слой_2" data-name="Слой 2"><g id="Слой_1-2" data-name="Слой 1"><path class="cls-1" d="M0,85.94l13,171,36-5v-40c.17-2-.9-4.12,2.06-3.75,3.12-.58,7.2-1.13,10.13-2.29,29.26-11,48.18-32.36,46.89-64.69C110.66,81.94,40.13,81.07,0,85.94Z" transform="translate(0 -3.88)"/><path class="cls-2" d="M42.38,114.58l3.07,52.08c4.12-.12,11.15-3.24,14.46-5.62C93.67,143.28,73.31,114.44,42.38,114.58Z" transform="translate(0 -3.88)"/><polygon class="cls-1" points="116.94 85.51 102.64 233.25 189.11 221.34 190.81 190.02 141.45 191.38 141.45 176.74 174.13 176.4 174.81 143.72 146.72 145.42 146.72 119.55 194.55 124.66 194.55 87.89 116.94 85.51"/><polygon class="cls-1" points="211.57 80.24 206.47 227.46 249.02 219.29 249.02 132.14 276.25 130.1 272.85 215.89 312 213.16 315.4 80.24 211.57 80.24"/><polygon class="cls-1" points="330.38 90.95 326.98 233.25 368.51 225.76 370.21 205.34 385.87 173.34 379.06 230.19 412.77 227.46 429.79 93.68 394.38 90.95 372.25 153.85 376.34 89.25 330.38 90.95"/><polygon class="cls-1" points="446.13 99.12 424.68 235.29 458.04 240.06 470.3 181.85 485.28 182.53 474.04 240.06 506.04 245.16 526.81 107.97 496.85 102.87 490.38 147.8 475.75 148.49 484.25 102.87 446.13 99.12"/><polygon class="cls-3" points="73.19 264.74 86.47 397.51 135.49 390.87 132.94 345.93 157.96 338.27 163.06 382.19 211.57 376.06 199.83 256.06 152.34 259.63 154.89 294.36 128.85 305.08 124.77 259.12 73.19 264.74"/><polygon class="cls-3" points="216.17 373 248.34 256.06 313.19 253.06 339.23 369.42 302.47 369.42 294.3 340.82 268.77 341.34 264 366.36 216.17 373"/><polygon class="cls-2" points="284.6 274.95 274.38 313.03 296.34 309.17 284.6 274.95"/><polygon class="cls-3" points="359.77 252.95 342.92 366.76 448.11 383.61 501.72 267.19 464.45 258.51 437.38 340.72 429.38 338.17 449.64 263.61 413.38 258.51 391.94 333.06 382.23 332.55 397.55 255.95 359.77 252.95"/><polygon class="cls-4" points="93.64 427.06 96.7 444.93 69.64 459.23 53.59 433.19 11.43 414.29 59.38 414.29 76.88 430.12 93.64 427.06"/><polygon class="cls-1" points="102.64 425.59 102.64 448.06 177.36 455.72 159.49 414.29 102.64 425.59"/><polygon class="cls-1" points="194.55 408.74 209.02 455.72 508.77 436.76 471.49 411.8 194.55 408.74"/><text class="cls-5" transform="matrix(1.72, -0.07, 0.03, 1, 220.39, 443.97)">САМАРА</text><text class="cls-6" transform="translate(390.04 436.22) scale(1.7 1)">2025</text><path d="M176.48,4.17h2v6.65h3.87l5.84,9.1H186l-4.84-7.46h-2.7v7.46h-2ZM181,11.23l2.43-4.42c1.31-2.38,2.13-2.93,3.55-2.93a2.31,2.31,0,0,1,.86.15l-.33,1.87a2.22,2.22,0,0,0-.57-.09c-.69,0-1.11.27-2.06,2l-2.11,3.82Z" transform="translate(0 -3.88)"/><path d="M188.64,12c0-5,2.78-8.11,6.74-8.11S202.11,7,202.11,12s-2.78,8.22-6.73,8.22S188.64,17,188.64,12ZM200,12c0-3.93-1.85-6.35-4.66-6.35s-4.67,2.42-4.67,6.35,1.85,6.46,4.67,6.46S200,15.91,200,12Z" transform="translate(0 -3.88)"/><path d="M204.89,4.17h2v6.59h7.32V4.17h2V19.92h-2V12.51H206.9v7.41h-2Z" transform="translate(0 -3.88)"/><path d="M219.94,4.17h2v6.65h3.86l5.84,9.1h-2.17l-4.84-7.46H222v7.46h-2Zm4.5,7.06,2.43-4.42c1.3-2.38,2.13-2.93,3.54-2.93a2.37,2.37,0,0,1,.87.15l-.34,1.87a2.15,2.15,0,0,0-.57-.09c-.69,0-1.11.27-2.06,2l-2.11,3.82Z" transform="translate(0 -3.88)"/><path d="M232.81,20l.42-1.79a2.53,2.53,0,0,0,1,.16,2,2,0,0,0,2-1.28l.34-.82L231.23,4.17h2.12l2.94,7,1.19,3.11h.1l1.11-3.11,2.71-7h2l-5.16,12.89c-.79,2-1.91,3.15-3.91,3.15A4.11,4.11,0,0,1,232.81,20Z" transform="translate(0 -3.88)"/><path d="M245,4.17h4.49c3.53,0,5.92,1.18,5.92,4.64,0,3.31-2.37,4.86-5.82,4.86H247v6.25h-2ZM249.34,12c2.75,0,4.07-1,4.07-3.23s-1.4-3-4.17-3H247V12Z" transform="translate(0 -3.88)"/><path d="M257.06,12.06c0-5.08,3-8.18,7-8.18a5.87,5.87,0,0,1,4.33,1.94l-1.1,1.31a4.27,4.27,0,0,0-3.2-1.49c-3,0-4.95,2.44-4.95,6.36S261,18.45,264,18.45a4.72,4.72,0,0,0,3.65-1.77l1.1,1.25a6,6,0,0,1-4.83,2.28C260,20.21,257.06,17.17,257.06,12.06Z" transform="translate(0 -3.88)"/><path d="M275.28,4.17h2V18.22h5.29v-14h1.94V18.22h5.29v-14h2V19.92H275.28Z" transform="translate(0 -3.88)"/><path d="M295.44,4.17h2v6.65h3.86l5.84,9.1H305l-4.85-7.46h-2.69v7.46h-2Zm4.5,7.06,2.43-4.42c1.3-2.38,2.13-2.93,3.55-2.93a2.31,2.31,0,0,1,.86.15l-.34,1.87a2.09,2.09,0,0,0-.56-.09c-.7,0-1.12.27-2.06,2l-2.12,3.82Z" transform="translate(0 -3.88)"/><path d="M307.61,12c0-5,2.77-8.11,6.73-8.11S321.07,7,321.07,12s-2.77,8.22-6.73,8.22S307.61,17,307.61,12ZM319,12c0-3.93-1.85-6.35-4.66-6.35s-4.66,2.42-4.66,6.35,1.85,6.46,4.66,6.46S319,15.91,319,12Z" transform="translate(0 -3.88)"/><path d="M321.32,20l.42-1.85a1.82,1.82,0,0,0,.67.13c.83,0,1.45-.49,2.2-4.22.65-3.29,1.19-6.42,1.81-9.89h7.87V19.92h-2V5.86H328c-.52,2.88-1,5.63-1.49,8.42-.91,4.82-1.93,5.93-3.82,5.93A3.71,3.71,0,0,1,321.32,20Z" transform="translate(0 -3.88)"/><path d="M338,4.17h2v6.45h2.89c3.46,0,5.82,1.3,5.82,4.46,0,3.36-2.27,4.84-5.79,4.84H338Zm4.67,14.12c2.65,0,4.07-.95,4.07-3.16,0-2-1.39-2.88-4.13-2.88H340v6Z" transform="translate(0 -3.88)"/><path d="M351.32,4.17h2v6.59h7.33V4.17h2V19.92h-2V12.51h-7.33v7.41h-2Z" transform="translate(0 -3.88)"/><path d="M366.36,4.17h2v6.45h2.44c3.46,0,5.82,1.3,5.82,4.46,0,3.36-2.28,4.84-5.79,4.84h-4.48Zm4.22,14.12c2.66,0,4.08-.95,4.08-3.16,0-2-1.39-2.88-4.14-2.88h-2.15v6Zm8.63-14.12h2V19.92h-2Z" transform="translate(0 -3.88)"/><path d="M387.71,11.78l-4.29-7.61h2.21l2.15,4c.4.72.74,1.37,1.23,2.29h.09c.43-.92.74-1.57,1.12-2.29l2.09-4h2.11l-4.29,7.71,4.59,8h-2.21l-2.31-4.24c-.41-.79-.84-1.57-1.35-2.53h-.09c-.46,1-.86,1.74-1.25,2.53l-2.28,4.24h-2.11Z" transform="translate(0 -3.88)"/><path d="M154.35,36.91H159c3.2,0,5.42,1.09,5.42,3.86a3.45,3.45,0,0,1-2.31,3.42v.09a3.64,3.64,0,0,1,3.21,3.77c0,3.1-2.45,4.61-6,4.61h-5Zm4.34,6.7c2.68,0,3.79-1,3.79-2.58,0-1.84-1.27-2.53-3.7-2.53h-2.43v5.11Zm.41,7.46c2.69,0,4.28-1,4.28-3.09,0-1.94-1.53-2.83-4.28-2.83h-2.75v5.92Z" transform="translate(0 -3.88)"/><path d="M167.86,36.91h2v8.15c0,1.65-.16,3.42-.26,5h.1l1.7-3.23,5.79-9.93h2.13V52.66h-2V44.42c0-1.65.15-3.33.25-4.92h-.09l-1.7,3.22L170,52.66h-2.13Z" transform="translate(0 -3.88)"/><path d="M183,36.91h4.49c3.53,0,5.92,1.19,5.92,4.64s-2.37,4.86-5.82,4.86H185v6.25h-2Zm4.34,7.88c2.75,0,4.07-1,4.07-3.24s-1.4-3-4.17-3H185v6.26Z" transform="translate(0 -3.88)"/><path d="M198.69,38.61h-4.76v-1.7h11.53v1.7H200.7v14h-2Z" transform="translate(0 -3.88)"/><path d="M207.23,52.7l.41-1.79a2.62,2.62,0,0,0,1,.16,2,2,0,0,0,2-1.27L211,49l-5.37-12.06h2.12l2.94,7L211.9,47h.1l1.11-3.1,2.71-7h2L212.69,49.8c-.79,2-1.91,3.15-3.91,3.15A3.92,3.92,0,0,1,207.23,52.7Z" transform="translate(0 -3.88)"/><path d="M221.69,36.91H224l5.32,15.75h-2.12l-2.75-8.8c-.56-1.76-1.07-3.49-1.57-5.31h-.1c-.49,1.83-1,3.55-1.56,5.31l-2.78,8.8h-2Zm-2.52,9.35h7.25v1.6h-7.25Z" transform="translate(0 -3.88)"/><path d="M228.92,52.74l.42-1.85A1.82,1.82,0,0,0,230,51c.83,0,1.45-.49,2.2-4.22.65-3.28,1.19-6.42,1.81-9.89h7.87V52.66h-2v-14h-4.31c-.51,2.87-1,5.62-1.49,8.41-.9,4.82-1.93,5.93-3.82,5.93A3.75,3.75,0,0,1,228.92,52.74Z" transform="translate(0 -3.88)"/><path d="M245.6,36.91h2v6.45h2.9c3.46,0,5.81,1.31,5.81,4.46,0,3.36-2.27,4.84-5.79,4.84H245.6ZM250.27,51c2.66,0,4.07-1,4.07-3.17,0-2-1.39-2.88-4.13-2.88H247.6v6Z" transform="translate(0 -3.88)"/><path d="M258.92,36.91h2v6.6h7.33v-6.6h2V52.66h-2v-7.4h-7.33v7.4h-2Z" transform="translate(0 -3.88)"/><path d="M274,36.91h2v6.45h2.44c3.47,0,5.82,1.31,5.82,4.46,0,3.36-2.27,4.84-5.79,4.84H274ZM278.19,51c2.65,0,4.07-1,4.07-3.17,0-2-1.39-2.88-4.14-2.88H276v6Zm8.62-14.13h2V52.66h-2Z" transform="translate(0 -3.88)"/><path d="M295.31,44.52,291,36.91h2.21l2.15,4c.39.72.73,1.37,1.22,2.29h.1c.42-.92.73-1.57,1.11-2.29l2.09-4H302l-4.28,7.71,4.59,8h-2.22l-2.31-4.24c-.41-.78-.84-1.57-1.34-2.53h-.1c-.46,1-.85,1.75-1.25,2.53l-2.27,4.24h-2.12Z" transform="translate(0 -3.88)"/><path d="M308.43,36.91h4.67c3.21,0,5.42,1.09,5.42,3.86a3.46,3.46,0,0,1-2.3,3.42v.09a3.64,3.64,0,0,1,3.2,3.77c0,3.1-2.45,4.61-6,4.61h-5Zm4.33,6.7c2.68,0,3.79-1,3.79-2.58,0-1.84-1.26-2.53-3.69-2.53h-2.43v5.11Zm.41,7.46c2.7,0,4.29-1,4.29-3.09,0-1.94-1.53-2.83-4.29-2.83h-2.74v5.92Z" transform="translate(0 -3.88)"/><path d="M321.94,36.91h2v6.45h2.45c3.46,0,5.81,1.31,5.81,4.46,0,3.36-2.27,4.84-5.79,4.84h-4.47ZM326.16,51c2.66,0,4.07-1,4.07-3.17,0-2-1.39-2.88-4.13-2.88h-2.16v6Zm8.63-14.13h2V52.66h-2Z" transform="translate(0 -3.88)"/><path d="M339.58,44.8c0-5.08,3-8.18,7-8.18a5.87,5.87,0,0,1,4.33,1.94l-1.1,1.31a4.27,4.27,0,0,0-3.2-1.49c-3,0-5,2.44-5,6.37s1.89,6.44,4.87,6.44a4.72,4.72,0,0,0,3.65-1.77l1.1,1.26A6.07,6.07,0,0,1,346.44,53C342.52,53,339.58,49.92,339.58,44.8Z" transform="translate(0 -3.88)"/><path d="M356.44,38.61h-4.76v-1.7h11.53v1.7h-4.76v14h-2Z" transform="translate(0 -3.88)"/><path d="M363.94,44.73c0-5,2.77-8.11,6.73-8.11s6.73,3.07,6.73,8.11S374.63,53,370.67,53,363.94,49.77,363.94,44.73Zm11.39,0c0-3.93-1.85-6.35-4.66-6.35S366,40.8,366,44.73s1.85,6.46,4.66,6.46S375.33,48.65,375.33,44.73Z" transform="translate(0 -3.88)"/><path d="M380.19,36.91h4.67c3.21,0,5.42,1.09,5.42,3.86a3.46,3.46,0,0,1-2.3,3.42v.09a3.64,3.64,0,0,1,3.2,3.77c0,3.1-2.45,4.61-6,4.61h-5Zm4.33,6.7c2.68,0,3.79-1,3.79-2.58,0-1.84-1.26-2.53-3.69-2.53h-2.43v5.11Zm.41,7.46c2.7,0,4.28-1,4.28-3.09,0-1.94-1.52-2.83-4.28-2.83h-2.74v5.92Z" transform="translate(0 -3.88)"/><path d="M392.78,44.73c0-5,2.78-8.11,6.74-8.11s6.73,3.07,6.73,8.11S403.47,53,399.52,53,392.78,49.77,392.78,44.73Zm11.4,0c0-3.93-1.85-6.35-4.66-6.35s-4.67,2.42-4.67,6.35,1.85,6.46,4.67,6.46S404.18,48.65,404.18,44.73Z" transform="translate(0 -3.88)"/><path d="M409,36.91h2v6.65h3.87l5.83,9.1h-2.16l-4.85-7.46H411v7.46h-2ZM413.53,44,416,39.56c1.3-2.38,2.13-2.94,3.55-2.94a2.31,2.31,0,0,1,.86.15L420,38.65a1.79,1.79,0,0,0-.56-.1c-.69,0-1.12.27-2.06,2l-2.12,3.82Z" transform="translate(0 -3.88)"/></g></g></svg>